<svg width="37" height="36" viewBox="0 0 37 36" fill="none" xmlns="http://www.w3.org/2000/svg">
<g id="bx-chat">
<path id="Vector" d="M7.83325 27V32.649L10.1058 31.2855L17.2488 27H24.3333C25.9878 27 27.3333 25.6545 27.3333 24V12C27.3333 10.3455 25.9878 9 24.3333 9H6.33325C4.67875 9 3.33325 10.3455 3.33325 12V24C3.33325 25.6545 4.67875 27 6.33325 27H7.83325ZM6.33325 12H24.3333V24H16.4178L10.8333 27.351V24H6.33325V12Z" fill="#767982"/>
<path id="Vector_2" d="M30.3333 3H12.3333C10.6788 3 9.33325 4.3455 9.33325 6H27.3333C28.9878 6 30.3333 7.3455 30.3333 9V21C31.9878 21 33.3333 19.6545 33.3333 18V6C33.3333 4.3455 31.9878 3 30.3333 3Z" fill="#767982"/>
</g>
</svg>
