<svg width="37" height="36" viewBox="0 0 37 36" fill="none" xmlns="http://www.w3.org/2000/svg">
<g id="calender">
<path id="Vector" d="M29.1667 6H26.1667V4.5C26.1667 4.10218 26.0087 3.72064 25.7274 3.43934C25.4461 3.15804 25.0646 3 24.6667 3C24.2689 3 23.8874 3.15804 23.6061 3.43934C23.3248 3.72064 23.1667 4.10218 23.1667 4.5V6H14.1667V4.5C14.1667 4.10218 14.0087 3.72064 13.7274 3.43934C13.4461 3.15804 13.0646 3 12.6667 3C12.2689 3 11.8874 3.15804 11.6061 3.43934C11.3248 3.72064 11.1667 4.10218 11.1667 4.5V6H8.16675C6.97327 6 5.82868 6.47411 4.98477 7.31802C4.14085 8.16193 3.66675 9.30653 3.66675 10.5V28.5C3.66675 29.6935 4.14085 30.8381 4.98477 31.682C5.82868 32.5259 6.97327 33 8.16675 33H29.1667C30.3602 33 31.5048 32.5259 32.3487 31.682C33.1926 30.8381 33.6667 29.6935 33.6667 28.5V10.5C33.6667 9.30653 33.1926 8.16193 32.3487 7.31802C31.5048 6.47411 30.3602 6 29.1667 6ZM30.6667 28.5C30.6667 28.8978 30.5087 29.2794 30.2274 29.5607C29.9461 29.842 29.5646 30 29.1667 30H8.16675C7.76892 30 7.38739 29.842 7.10609 29.5607C6.82478 29.2794 6.66675 28.8978 6.66675 28.5V18H30.6667V28.5ZM30.6667 15H6.66675V10.5C6.66675 10.1022 6.82478 9.72064 7.10609 9.43934C7.38739 9.15804 7.76892 9 8.16675 9H11.1667V10.5C11.1667 10.8978 11.3248 11.2794 11.6061 11.5607C11.8874 11.842 12.2689 12 12.6667 12C13.0646 12 13.4461 11.842 13.7274 11.5607C14.0087 11.2794 14.1667 10.8978 14.1667 10.5V9H23.1667V10.5C23.1667 10.8978 23.3248 11.2794 23.6061 11.5607C23.8874 11.842 24.2689 12 24.6667 12C25.0646 12 25.4461 11.842 25.7274 11.5607C26.0087 11.2794 26.1667 10.8978 26.1667 10.5V9H29.1667C29.5646 9 29.9461 9.15804 30.2274 9.43934C30.5087 9.72064 30.6667 10.1022 30.6667 10.5V15Z" fill="#767982"/>
</g>
</svg>
