<svg width="24" height="25" viewBox="0 0 24 25" fill="none" xmlns="http://www.w3.org/2000/svg">
<g id="chat-left-dots" clip-path="url(#clip0_140_896)">
<path id="Vector" d="M21 2C21.3978 2 21.7794 2.15804 22.0607 2.43934C22.342 2.72064 22.5 3.10218 22.5 3.5V15.5C22.5 15.8978 22.342 16.2794 22.0607 16.5607C21.7794 16.842 21.3978 17 21 17H6.621C5.82542 17.0002 5.06248 17.3164 4.5 17.879L1.5 20.879V3.5C1.5 3.10218 1.65804 2.72064 1.93934 2.43934C2.22064 2.15804 2.60218 2 3 2H21ZM3 0.5C2.20435 0.5 1.44129 0.816071 0.87868 1.37868C0.316071 1.94129 0 2.70435 0 3.5L0 22.6895C3.15223e-05 22.8379 0.0440889 22.983 0.126596 23.1063C0.209103 23.2297 0.32635 23.3258 0.463499 23.3825C0.600648 23.4392 0.751531 23.4539 0.897054 23.4248C1.04258 23.3957 1.1762 23.3241 1.281 23.219L5.5605 18.9395C5.84174 18.6582 6.22321 18.5001 6.621 18.5H21C21.7956 18.5 22.5587 18.1839 23.1213 17.6213C23.6839 17.0587 24 16.2957 24 15.5V3.5C24 2.70435 23.6839 1.94129 23.1213 1.37868C22.5587 0.816071 21.7956 0.5 21 0.5L3 0.5Z" fill="#4285F4"/>
<path id="Vector_2" d="M7.5 9.5C7.5 9.89782 7.34196 10.2794 7.06066 10.5607C6.77936 10.842 6.39782 11 6 11C5.60218 11 5.22064 10.842 4.93934 10.5607C4.65804 10.2794 4.5 9.89782 4.5 9.5C4.5 9.10218 4.65804 8.72064 4.93934 8.43934C5.22064 8.15804 5.60218 8 6 8C6.39782 8 6.77936 8.15804 7.06066 8.43934C7.34196 8.72064 7.5 9.10218 7.5 9.5ZM13.5 9.5C13.5 9.89782 13.342 10.2794 13.0607 10.5607C12.7794 10.842 12.3978 11 12 11C11.6022 11 11.2206 10.842 10.9393 10.5607C10.658 10.2794 10.5 9.89782 10.5 9.5C10.5 9.10218 10.658 8.72064 10.9393 8.43934C11.2206 8.15804 11.6022 8 12 8C12.3978 8 12.7794 8.15804 13.0607 8.43934C13.342 8.72064 13.5 9.10218 13.5 9.5ZM19.5 9.5C19.5 9.89782 19.342 10.2794 19.0607 10.5607C18.7794 10.842 18.3978 11 18 11C17.6022 11 17.2206 10.842 16.9393 10.5607C16.658 10.2794 16.5 9.89782 16.5 9.5C16.5 9.10218 16.658 8.72064 16.9393 8.43934C17.2206 8.15804 17.6022 8 18 8C18.3978 8 18.7794 8.15804 19.0607 8.43934C19.342 8.72064 19.5 9.10218 19.5 9.5Z" fill="#4285F4"/>
</g>
<defs>
<clipPath id="clip0_140_896">
<rect width="24" height="24" fill="white" transform="translate(0 0.5)"/>
</clipPath>
</defs>
</svg>
