<svg width="24" height="25" viewBox="0 0 24 25" fill="none" xmlns="http://www.w3.org/2000/svg">
<g id="help">
<path id="Vector" d="M12 22.5C14.7614 22.5 17.2614 21.3807 19.0711 19.5711C20.8807 17.7614 22 15.2614 22 12.5C22 9.7386 20.8807 7.2386 19.0711 5.42893C17.2614 3.61929 14.7614 2.5 12 2.5C9.2386 2.5 6.7386 3.61929 4.92893 5.42893C3.11929 7.2386 2 9.7386 2 12.5C2 15.2614 3.11929 17.7614 4.92893 19.5711C6.7386 21.3807 9.2386 22.5 12 22.5Z" stroke="#4285F4" stroke-width="2" stroke-linejoin="round"/>
<path id="Vector_2" d="M12 14.8125V12.8125C13.6568 12.8125 15 11.4694 15 9.8125C15 8.15565 13.6568 6.8125 12 6.8125C10.3432 6.8125 9 8.15565 9 9.8125" stroke="#4285F4" stroke-width="2" stroke-linecap="round" stroke-linejoin="round"/>
<path id="Vector_3" fill-rule="evenodd" clip-rule="evenodd" d="M12 19.3125C12.6904 19.3125 13.25 18.7529 13.25 18.0625C13.25 17.3722 12.6904 16.8125 12 16.8125C11.3097 16.8125 10.75 17.3722 10.75 18.0625C10.75 18.7529 11.3097 19.3125 12 19.3125Z" fill="#4285F4"/>
</g>
</svg>
