<svg width="36" height="36" viewBox="0 0 36 36" fill="none" xmlns="http://www.w3.org/2000/svg">
<g id="user">
<path id="Vector" d="M23.5652 19.065C25.0358 17.908 26.1092 16.3214 26.6361 14.5259C27.163 12.7304 27.1171 10.8154 26.5049 9.0472C25.8927 7.27901 24.7446 5.74559 23.2203 4.66029C21.6961 3.57498 19.8714 2.99176 18.0002 2.99176C16.1291 2.99176 14.3044 3.57498 12.7801 4.66029C11.2559 5.74559 10.1078 7.27901 9.49556 9.0472C8.88336 10.8154 8.83751 12.7304 9.36438 14.5259C9.89125 16.3214 10.9647 17.908 12.4352 19.065C9.91536 20.0746 7.71667 21.749 6.07358 23.9099C4.43049 26.0707 3.40458 28.637 3.10524 31.335C3.08357 31.532 3.10091 31.7313 3.15628 31.9216C3.21164 32.1119 3.30394 32.2894 3.42791 32.444C3.67827 32.7562 4.04241 32.9562 4.44024 33C4.83806 33.0438 5.23698 32.9277 5.54923 32.6773C5.86148 32.427 6.06148 32.0628 6.10524 31.665C6.43462 28.7328 7.83277 26.0247 10.0326 24.0582C12.2324 22.0917 15.0796 21.0045 18.0302 21.0045C20.9809 21.0045 23.8281 22.0917 26.0279 24.0582C28.2277 26.0247 29.6259 28.7328 29.9552 31.665C29.996 32.0336 30.1719 32.374 30.4489 32.6205C30.7259 32.8671 31.0844 33.0023 31.4552 33H31.6202C32.0134 32.9548 32.3728 32.7559 32.6201 32.4469C32.8673 32.1378 32.9824 31.7435 32.9402 31.35C32.6395 28.6443 31.608 26.0715 29.9565 23.9073C28.305 21.7431 26.0956 20.0692 23.5652 19.065V19.065ZM18.0002 18C16.8136 18 15.6535 17.6481 14.6668 16.9888C13.6801 16.3295 12.9111 15.3925 12.457 14.2961C12.0028 13.1997 11.884 11.9933 12.1155 10.8295C12.347 9.66558 12.9185 8.59648 13.7576 7.75736C14.5967 6.91825 15.6658 6.3468 16.8297 6.11529C17.9936 5.88378 19.2 6.0026 20.2963 6.45673C21.3927 6.91085 22.3298 7.67989 22.9891 8.66658C23.6483 9.65328 24.0002 10.8133 24.0002 12C24.0002 13.5913 23.3681 15.1174 22.2429 16.2426C21.1177 17.3679 19.5915 18 18.0002 18Z" fill="#767982"/>
</g>
</svg>
