<svg width="24" height="25" viewBox="0 0 24 25" fill="none" xmlns="http://www.w3.org/2000/svg">
<g id="user">
<path id="Vector" d="M12 4.25C9.1084 4.25 6.75 6.6084 6.75 9.5C6.75 11.3076 7.67285 12.9131 9.07031 13.8594C6.39551 15.0078 4.5 17.6621 4.5 20.75H6C6 17.4277 8.67773 14.75 12 14.75C15.3223 14.75 18 17.4277 18 20.75H19.5C19.5 17.6621 17.6045 15.0078 14.9297 13.8594C16.3271 12.9131 17.25 11.3076 17.25 9.5C17.25 6.6084 14.8916 4.25 12 4.25ZM12 5.75C14.0801 5.75 15.75 7.41992 15.75 9.5C15.75 11.5801 14.0801 13.25 12 13.25C9.91992 13.25 8.25 11.5801 8.25 9.5C8.25 7.41992 9.91992 5.75 12 5.75Z" fill="#4285F4"/>
</g>
</svg>
