<svg width="24" height="25" viewBox="0 0 24 25" fill="none" xmlns="http://www.w3.org/2000/svg">
<g id="camera">
<path id="Vector" d="M19 7.00002H17.72L17.4 6.00002C17.1926 5.41325 16.8077 4.90553 16.2989 4.54718C15.7901 4.18884 15.1824 3.99762 14.56 4.00002H9.44C8.81155 4.0012 8.19933 4.19971 7.68977 4.56753C7.1802 4.93535 6.79901 5.45391 6.6 6.05002L6.28 7.05002H5C4.20435 7.05002 3.44129 7.36609 2.87868 7.9287C2.31607 8.49131 2 9.25437 2 10.05V18.05C2 18.8457 2.31607 19.6087 2.87868 20.1713C3.44129 20.734 4.20435 21.05 5 21.05H19C19.7956 21.05 20.5587 20.734 21.1213 20.1713C21.6839 19.6087 22 18.8457 22 18.05V10.05C22.0066 9.65187 21.9339 9.25638 21.7862 8.88661C21.6384 8.51684 21.4184 8.1802 21.1392 7.89631C20.86 7.61241 20.527 7.38695 20.1597 7.23307C19.7924 7.07919 19.3982 6.99997 19 7.00002ZM20 18C20 18.2652 19.8946 18.5196 19.7071 18.7071C19.5196 18.8947 19.2652 19 19 19H5C4.73478 19 4.48043 18.8947 4.29289 18.7071C4.10536 18.5196 4 18.2652 4 18V10C4 9.73481 4.10536 9.48045 4.29289 9.29292C4.48043 9.10538 4.73478 9.00002 5 9.00002H7C7.21807 9.0114 7.43386 8.9511 7.61443 8.82831C7.795 8.70552 7.93042 8.527 8 8.32002L8.54 6.68002C8.60709 6.4814 8.7349 6.30889 8.90537 6.18686C9.07584 6.06484 9.28036 5.99948 9.49 6.00002H14.61C14.8196 5.99948 15.0242 6.06484 15.1946 6.18686C15.3651 6.30889 15.4929 6.4814 15.56 6.68002L16.1 8.32002C16.1642 8.51077 16.2844 8.67771 16.445 8.79903C16.6055 8.92035 16.799 8.9904 17 9.00002H19C19.2652 9.00002 19.5196 9.10538 19.7071 9.29292C19.8946 9.48045 20 9.73481 20 10V18ZM12 9.00002C11.2089 9.00002 10.4355 9.23462 9.77772 9.67414C9.11992 10.1137 8.60723 10.7384 8.30448 11.4693C8.00173 12.2002 7.92252 13.0045 8.07686 13.7804C8.2312 14.5563 8.61216 15.269 9.17157 15.8284C9.73098 16.3879 10.4437 16.7688 11.2196 16.9232C11.9956 17.0775 12.7998 16.9983 13.5307 16.6955C14.2616 16.3928 14.8864 15.8801 15.3259 15.2223C15.7654 14.5645 16 13.7911 16 13C16 11.9392 15.5786 10.9217 14.8284 10.1716C14.0783 9.42145 13.0609 9.00002 12 9.00002ZM12 15C11.6044 15 11.2178 14.8827 10.8889 14.663C10.56 14.4432 10.3036 14.1308 10.1522 13.7654C10.0009 13.3999 9.96126 12.9978 10.0384 12.6098C10.1156 12.2219 10.3061 11.8655 10.5858 11.5858C10.8655 11.3061 11.2219 11.1156 11.6098 11.0385C11.9978 10.9613 12.3999 11.0009 12.7654 11.1523C13.1308 11.3036 13.4432 11.56 13.6629 11.8889C13.8827 12.2178 14 12.6045 14 13C14 13.5305 13.7893 14.0392 13.4142 14.4142C13.0391 14.7893 12.5304 15 12 15Z" fill="white"/>
</g>
</svg>
