<svg width="24" height="24" viewBox="0 0 24 24" fill="none" xmlns="http://www.w3.org/2000/svg">
<g id="medal" clip-path="url(#clip0_537_2830)">
<path id="Vector" d="M10.489 6.12891L7.24851 0.728437C7.11527 0.506278 6.92677 0.322415 6.70136 0.194758C6.47594 0.0671012 6.22131 3.18059e-06 5.96226 0H0.752105C0.145074 0 -0.210239 0.682969 0.137574 1.18031L5.35335 8.63156C6.74648 7.32984 8.51836 6.43641 10.489 6.12891ZM23.2493 0H18.0391C17.5123 0 17.0238 0.276562 16.7529 0.728437L13.5124 6.12891C15.483 6.43641 17.2549 7.32984 18.648 8.63109L23.8638 1.18031C24.2116 0.682969 23.8563 0 23.2493 0ZM12.0007 7.5C7.44445 7.5 3.7507 11.1938 3.7507 15.75C3.7507 20.3062 7.44445 24 12.0007 24C16.5569 24 20.2507 20.3062 20.2507 15.75C20.2507 11.1938 16.5569 7.5 12.0007 7.5ZM16.3376 14.8716L14.5596 16.6041L14.9801 19.0519C15.0551 19.4906 14.5929 19.8258 14.1996 19.6186L12.0007 18.4631L9.80226 19.6186C9.40851 19.8272 8.94679 19.4902 9.02179 19.0519L9.44226 16.6041L7.66429 14.8716C7.34461 14.5603 7.52132 14.017 7.96195 13.9533L10.4196 13.5952L11.5179 11.3677C11.6168 11.167 11.808 11.0681 11.9998 11.0681C12.1924 11.0681 12.3851 11.1684 12.484 11.3677L13.5823 13.5952L16.0399 13.9533C16.4805 14.017 16.6573 14.5603 16.3376 14.8716Z" fill="#FF8400"/>
</g>
<defs>
<clipPath id="clip0_537_2830">
<rect width="24" height="24" fill="white"/>
</clipPath>
</defs>
</svg>
